<svg width="480" height="380" viewBox="0 0 480 380" fill="none" xmlns="http://www.w3.org/2000/svg">
<path d="M184.1 368.747L192.738 243.215L237.099 173.152C241.969 165.454 249.031 159.411 257.363 155.812L320.17 128.731L337.056 128.323L392.264 143.031C411.638 148.226 428.252 160.789 438.605 178.071L474.441 237.871C477.844 243.552 479.749 250.013 479.977 256.642C480.204 263.271 478.746 269.85 475.741 275.753C472.736 281.657 468.283 286.69 462.805 290.377C457.326 294.064 451.003 296.282 444.434 296.821L409.508 299.681V373.585L184.1 368.747Z" fill="#69B4E3"/>
<path d="M0 373.65V219.746C0 217.242 0.489901 214.761 1.44218 212.447C2.39446 210.133 3.79032 208.031 5.5499 206.26C7.30949 204.489 9.3986 203.084 11.6976 202.126C13.9966 201.167 16.4605 200.674 18.9489 200.674H273.162C275.651 200.674 278.115 201.167 280.414 202.126C282.713 203.084 284.802 204.489 286.561 206.26C288.321 208.031 289.717 210.133 290.669 212.447C291.621 214.761 292.111 217.242 292.111 219.746V254.345L292.42 311.758L292.111 373.65H0Z" fill="#D7E4F4"/>
<path d="M269.151 215.988C269.151 216.996 269.449 217.982 270.005 218.82C270.562 219.659 271.353 220.313 272.279 220.699C273.205 221.085 274.224 221.186 275.206 220.989C276.189 220.792 277.091 220.306 277.8 219.593C278.508 218.88 278.991 217.972 279.186 216.982C279.382 215.993 279.282 214.968 278.899 214.036C278.515 213.105 277.865 212.308 277.032 211.748C276.199 211.188 275.22 210.889 274.218 210.889C272.874 210.889 271.586 211.426 270.636 212.382C269.685 213.338 269.151 214.635 269.151 215.988Z" fill="#99CDE0"/>
<path d="M252.054 215.988C252.051 217 252.346 217.991 252.902 218.834C253.459 219.677 254.252 220.336 255.18 220.725C256.108 221.115 257.13 221.219 258.117 221.023C259.104 220.828 260.012 220.342 260.724 219.627C261.437 218.912 261.922 218.001 262.12 217.008C262.317 216.015 262.217 214.986 261.833 214.05C261.448 213.115 260.798 212.315 259.962 211.752C259.125 211.189 258.142 210.889 257.136 210.889C255.791 210.889 254.501 211.425 253.548 212.381C252.596 213.337 252.058 214.634 252.054 215.988Z" fill="#99CDE0"/>
<path d="M235.004 215.988C235.001 217 235.296 217.991 235.853 218.834C236.409 219.677 237.202 220.336 238.131 220.725C239.059 221.115 240.081 221.219 241.068 221.023C242.055 220.828 242.963 220.342 243.675 219.627C244.387 218.912 244.873 218.001 245.07 217.008C245.268 216.015 245.168 214.986 244.783 214.05C244.399 213.115 243.748 212.315 242.912 211.752C242.076 211.189 241.092 210.889 240.087 210.889C238.741 210.889 237.452 211.425 236.499 212.381C235.546 213.337 235.009 214.634 235.004 215.988Z" fill="#99CDE0"/>
<path d="M286.119 226.922H11.1226V230.19H286.119V226.922Z" fill="#99CDE0"/>
<path d="M320.462 98.5295L326.292 121.998L337.057 128.323L322.168 153.361C320.079 156.877 317.017 159.704 313.357 161.494C309.696 163.285 305.595 163.961 301.558 163.441C297.521 162.92 293.723 161.225 290.629 158.564C287.535 155.903 285.279 152.39 284.139 148.458L279.268 131.477L320.462 98.5295Z" fill="#FFC89E"/>
<path d="M284.139 148.457C284.455 149.529 284.846 150.578 285.308 151.595C289.537 148.803 293.075 145.075 295.651 140.694L319.114 101.242L317.945 100.539L279.203 131.477L284.139 148.457Z" fill="#FF7E64"/>
<path d="M315.282 12.6942C298.736 3.52568 276.556 7.07222 272.854 13.5768C269.471 10.0454 265.097 7.63887 260.318 6.67993C248.465 4.21211 237.05 10.5042 234.826 20.7677C232.893 29.6421 238.512 38.5655 247.816 42.4061C244.846 48.6619 242.606 55.2431 241.141 62.0179C235.036 90.1609 280.112 101.912 288.588 103.709C311.726 108.612 334.945 91.8607 340.45 66.4471C345.954 41.0334 335.27 23.7585 315.282 12.6942Z" fill="#080717"/>
<path d="M314.974 19.8369C308.333 20.9156 302.877 23.6285 299.5 28.0085C289.985 40.3803 297.599 70.5007 322.702 76.5477C324.326 76.9236 326.032 76.5478 327.444 77.2342C332.381 54.2066 327.087 32.5683 314.974 19.8369Z" fill="#080717"/>
<path d="M246.761 42.0633C256.162 47.3912 269.071 50.6762 283.311 50.6762C307.261 50.6762 327.412 41.3768 333.468 28.7272C327.25 15.9795 317.15 6.95806 304.387 4.44121C282.548 0.126608 259.507 16.1266 246.761 42.0633Z" fill="#080717"/>
<path d="M341.978 92.3635C344.205 82.8209 338.325 73.2673 328.844 71.0256C319.363 68.7839 309.872 74.703 307.645 84.2456C305.418 93.7881 311.298 103.341 320.779 105.583C330.26 107.824 339.751 101.906 341.978 92.3635Z" fill="white"/>
<path d="M324.797 70.5489C321.246 70.5473 317.777 71.6236 314.844 73.6376C310.277 71.1885 306.283 67.7855 303.13 63.6561C299.977 59.5268 297.737 54.7667 296.561 49.695C292.174 50.351 287.745 50.6787 283.311 50.6755C269.346 50.6755 256.698 47.5212 247.345 42.373C244.505 48.5924 242.36 55.1096 240.947 61.8051C233.722 95.9624 246.257 127.586 268.94 132.457C285.941 136.101 303.818 123.697 314.746 102.876C317.019 104.464 319.632 105.492 322.372 105.876C325.113 106.261 327.905 105.99 330.523 105.087C333.141 104.184 335.51 102.673 337.44 100.677C339.371 98.6816 340.807 96.2565 341.634 93.5983C342.46 90.9402 342.654 88.1236 342.198 85.3763C341.743 82.629 340.651 80.0283 339.012 77.7842C337.373 75.5402 335.232 73.7159 332.763 72.4589C330.293 71.202 327.564 70.5477 324.797 70.5489Z" fill="#FFC89E"/>
<path d="M273.162 14.4594C272.859 14.4615 272.562 14.3785 272.304 14.2197C272.046 14.0609 271.837 13.8326 271.701 13.5605C268.453 7.02327 262.754 3.60752 254.7 3.21528C250.782 3.07173 246.867 3.56851 243.107 4.68621C242.7 4.82099 242.257 4.78839 241.873 4.59553C241.49 4.40267 241.198 4.06517 241.061 3.65658C240.992 3.45271 240.964 3.23718 240.978 3.02236C240.992 2.80754 241.049 2.59767 241.144 2.4048C241.239 2.21193 241.37 2.03984 241.532 1.89847C241.693 1.75709 241.881 1.64919 242.083 1.58096C242.327 1.58096 265.579 -6.01862 274.558 12.106C274.75 12.4939 274.78 12.9425 274.643 13.3532C274.506 13.7638 274.213 14.103 273.828 14.296C273.62 14.3975 273.393 14.4532 273.162 14.4594Z" fill="#080717"/>
<path d="M242.311 75.7627C242.75 78.4593 244.503 80.4206 246.208 80.1427C247.913 79.8649 248.953 77.4297 248.498 74.7331C248.043 72.0364 246.306 70.059 244.601 70.3368C242.896 70.6147 241.873 73.017 242.311 75.7627Z" fill="#080717"/>
<path d="M237.943 66.9043C237.568 66.9074 237.203 66.7796 236.911 66.5424C236.619 66.3052 236.417 65.9733 236.34 65.6034C236.264 65.2335 236.317 64.8484 236.491 64.5135C236.665 64.1786 236.949 63.9146 237.294 63.7666C241.104 62.2347 245.244 61.7222 249.31 62.2793C249.74 62.3508 250.125 62.5915 250.379 62.9486C250.633 63.3057 250.736 63.7499 250.665 64.1833C250.594 64.6168 250.355 65.0039 250 65.2598C249.645 65.5158 249.204 65.6194 248.774 65.5479C245.329 65.0802 241.823 65.5136 238.593 66.8064C238.384 66.8792 238.164 66.9123 237.943 66.9043Z" fill="#080717"/>
<path d="M268.486 76.4822C268.925 79.1788 270.678 81.1401 272.383 80.8622C274.088 80.5844 275.127 78.1494 274.673 75.4527C274.218 72.7561 272.496 70.7785 270.775 71.0563C269.054 71.3341 268.048 73.7692 268.486 76.4822Z" fill="#080717"/>
<path d="M282.401 70.5656C281.993 70.5686 281.599 70.4171 281.297 70.1409C281.297 70.1409 274.25 63.6035 266.683 65.7117C266.472 65.7917 266.247 65.8265 266.022 65.8139C265.797 65.8013 265.576 65.7417 265.375 65.6387C265.174 65.5357 264.997 65.3917 264.854 65.2158C264.711 65.0399 264.606 64.836 264.546 64.6171C264.486 64.3982 264.472 64.169 264.505 63.9443C264.538 63.7197 264.617 63.5044 264.737 63.3121C264.857 63.1199 265.016 62.955 265.203 62.8279C265.39 62.7008 265.601 62.6143 265.823 62.574C275.127 59.9917 283.132 67.4768 283.473 67.7546C283.706 67.9803 283.866 68.2709 283.934 68.5889C284.001 68.907 283.973 69.2381 283.853 69.54C283.733 69.8418 283.526 70.1006 283.258 70.2833C282.991 70.4661 282.676 70.5643 282.353 70.5656H282.401Z" fill="#080717"/>
<path d="M257.689 92.7926C256.715 92.7926 251.762 92.6455 249.829 89.8671C249.412 89.2538 249.155 88.5436 249.084 87.8033C249.013 87.063 249.13 86.3168 249.424 85.6343C250.82 81.7937 253.37 69.291 253.402 69.1603C253.488 68.7268 253.741 68.3457 254.107 68.1005C254.472 67.8553 254.919 67.7662 255.35 67.8529C255.781 67.9396 256.16 68.195 256.404 68.5628C256.647 68.9305 256.736 69.3806 256.649 69.814C256.536 70.337 254.019 82.6761 252.541 86.7455C252.249 87.5627 252.46 87.8733 252.541 88.004C253.272 89.0336 256.081 89.524 257.753 89.524C258.184 89.524 258.597 89.6961 258.902 90.0026C259.206 90.3091 259.377 90.7249 259.377 91.1583C259.377 91.5918 259.206 92.0073 258.902 92.3138C258.597 92.6203 258.184 92.7926 257.753 92.7926H257.689Z" fill="#080717"/>
<path d="M259.361 106.667C258.201 106.683 257.045 106.551 255.918 106.275C255.714 106.215 255.523 106.115 255.357 105.98C255.191 105.846 255.052 105.68 254.949 105.492C254.847 105.304 254.782 105.097 254.759 104.884C254.736 104.67 254.755 104.455 254.815 104.248C254.874 104.042 254.974 103.85 255.107 103.683C255.241 103.516 255.405 103.376 255.592 103.273C255.779 103.17 255.985 103.105 256.197 103.081C256.408 103.058 256.623 103.077 256.828 103.137C257.315 103.268 268.194 106.161 273.325 91.0758C273.394 90.8719 273.503 90.6838 273.645 90.5222C273.786 90.3605 273.957 90.2284 274.15 90.1335C274.342 90.0387 274.551 89.9829 274.765 89.9693C274.979 89.9558 275.193 89.9846 275.395 90.0543C275.598 90.1241 275.785 90.2333 275.945 90.3757C276.106 90.5182 276.237 90.6912 276.332 90.8846C276.426 91.0781 276.481 91.2884 276.495 91.5035C276.508 91.7186 276.479 91.9342 276.41 92.1381C272.172 104.722 264.005 106.667 259.361 106.667Z" fill="#FF7E64"/>
<path d="M317.231 85.9938C316.893 85.9916 316.563 85.883 316.289 85.6832C316.115 85.5581 315.966 85.3997 315.853 85.2168C315.74 85.0339 315.664 84.8301 315.63 84.6175C315.595 84.4048 315.602 84.1874 315.651 83.9777C315.7 83.7679 315.79 83.57 315.916 83.3953C316.127 83.1011 321.209 76.188 329.23 77.4464C329.661 77.5136 330.048 77.7501 330.305 78.1041C330.562 78.4581 330.669 78.9006 330.602 79.3341C330.536 79.7675 330.301 80.1564 329.949 80.4154C329.597 80.6744 329.158 80.7822 328.727 80.715C322.671 79.7671 318.709 85.144 318.546 85.3728C318.39 85.572 318.19 85.7318 317.961 85.8396C317.733 85.9474 317.483 86.0002 317.231 85.9938Z" fill="#FF7E64"/>
<path d="M13.3635 362.701C12.9455 362.699 12.5442 362.535 12.2432 362.243C12.0888 362.095 11.9649 361.918 11.8785 361.721C11.7922 361.525 11.7449 361.314 11.7398 361.099L10.2944 241.352C10.2944 240.919 10.4656 240.503 10.7701 240.197C11.0747 239.89 11.4875 239.718 11.9182 239.718L130.89 238.264C131.319 238.257 131.734 238.421 132.043 238.721C132.196 238.872 132.318 239.053 132.402 239.252C132.485 239.451 132.529 239.665 132.53 239.882L133.975 359.612C133.975 360.045 133.804 360.461 133.5 360.767C133.195 361.074 132.782 361.246 132.351 361.246L13.396 362.701H13.3635ZM13.5744 242.954L14.9714 359.416L130.695 358.01L129.283 241.532L13.5744 242.954Z" fill="#99CDE0"/>
<path d="M132.351 361.246C131.928 361.248 131.52 361.084 131.215 360.788L10.8148 242.464C10.5886 242.238 10.4327 241.95 10.3677 241.637C10.3026 241.323 10.3309 240.997 10.4485 240.699C10.5662 240.401 10.7683 240.144 11.0297 239.961C11.2911 239.778 11.6001 239.677 11.9185 239.669L130.89 238.214C131.319 238.207 131.734 238.372 132.043 238.672C132.196 238.823 132.318 239.004 132.402 239.203C132.486 239.402 132.53 239.616 132.531 239.832L133.975 359.563C133.978 359.886 133.886 360.203 133.709 360.474C133.533 360.744 133.281 360.956 132.985 361.082C132.789 361.185 132.572 361.241 132.351 361.246ZM15.8803 242.921L130.679 355.689L129.299 241.532L15.8803 242.921Z" fill="#99CDE0"/>
<path d="M13.3635 362.7C13.1579 362.701 12.9538 362.662 12.7626 362.586C12.4655 362.467 12.2104 362.263 12.0284 361.998C11.8464 361.733 11.7459 361.421 11.7398 361.099L10.2944 241.352C10.2944 240.919 10.4656 240.503 10.7701 240.197C11.0747 239.89 11.4875 239.718 11.9182 239.718L130.89 238.264C131.209 238.259 131.523 238.35 131.792 238.524C132.061 238.699 132.272 238.949 132.4 239.244C132.53 239.542 132.568 239.873 132.51 240.193C132.453 240.513 132.301 240.809 132.075 241.042L14.5488 362.227C14.3933 362.382 14.2079 362.504 14.0041 362.586C13.8004 362.667 13.5827 362.706 13.3635 362.7ZM13.5744 242.954L14.9389 357.111L126.977 241.565L13.5744 242.954Z" fill="#99CDE0"/>
<path d="M162.195 149.359L80.7059 150.361C70.358 150.488 62.0718 159.034 62.1982 169.45L63.1941 251.47C63.3205 261.885 71.8117 270.225 82.1597 270.098L163.649 269.096C173.997 268.969 182.283 260.423 182.157 250.007L181.161 167.987C181.035 157.572 172.543 149.232 162.195 149.359Z" fill="#69B4E3"/>
<path d="M115.048 200.51C121.751 193.764 121.751 182.826 115.048 176.08C108.346 169.334 97.4785 169.334 90.776 176.08C84.0734 182.826 84.0736 193.764 90.7761 200.51C97.4787 207.256 108.346 207.257 115.048 200.51Z" fill="white"/>
<path d="M63.0498 252.024L62.8389 233.409L71.0543 224.927C73.9736 221.92 77.9598 220.202 82.1367 220.15C86.3135 220.097 90.34 221.716 93.3324 224.649C94.732 226.033 96.3892 227.124 98.2092 227.861C100.029 228.598 101.976 228.965 103.937 228.943C105.899 228.92 107.836 228.507 109.639 227.728C111.441 226.95 113.074 225.82 114.441 224.404L146.721 191.113C150.402 187.321 155.428 185.154 160.696 185.09C165.963 185.026 171.041 187.069 174.812 190.77L181.405 197.307L182.054 250.619C182.11 255.619 180.193 260.438 176.722 264.017C173.251 267.596 168.512 269.643 163.543 269.708L82.0471 270.705C79.5801 270.737 77.1318 270.279 74.8409 269.357C72.5501 268.435 70.462 267.067 68.6972 265.332C66.9324 263.597 65.5253 261.528 64.5562 259.245C63.587 256.961 63.0752 254.507 63.0498 252.024Z" fill="#080717"/>
<path d="M143.864 131.444H161.221L180.43 151.383C180.811 151.777 181.105 152.248 181.293 152.764C181.481 153.28 181.56 153.831 181.523 154.379C181.486 154.928 181.335 155.463 181.08 155.949C180.824 156.435 180.47 156.861 180.04 157.201C178.259 158.634 176.046 159.415 173.765 159.415C171.484 159.415 169.271 158.634 167.489 157.201L148.004 141.315L143.864 131.444Z" fill="#FFC89E"/>
<path d="M173.821 161.026C171.139 161.022 168.542 160.087 166.466 158.378L146.981 142.509C146.784 142.329 146.624 142.113 146.51 141.871L142.353 132.065C142.23 131.805 142.177 131.518 142.2 131.231C142.223 130.944 142.32 130.668 142.483 130.431C142.632 130.204 142.834 130.018 143.072 129.889C143.31 129.761 143.577 129.694 143.847 129.696H161.204C161.423 129.696 161.639 129.742 161.84 129.829C162.041 129.916 162.223 130.043 162.374 130.202L181.566 150.125C182.096 150.681 182.505 151.343 182.766 152.068C183.027 152.792 183.136 153.564 183.084 154.333C183.032 155.102 182.821 155.852 182.465 156.534C182.108 157.217 181.614 157.817 181.014 158.296C178.992 159.998 176.456 160.96 173.821 161.026ZM149.367 140.22L168.511 155.845C170.001 157.055 171.858 157.714 173.773 157.714C175.687 157.714 177.543 157.055 179.033 155.845C179.283 155.644 179.489 155.392 179.637 155.107C179.785 154.822 179.873 154.508 179.894 154.187C179.916 153.866 179.87 153.544 179.761 153.241C179.652 152.938 179.482 152.662 179.261 152.429L160.539 132.997H146.315L149.367 140.22Z" fill="#FF7E64"/>
<path d="M145.487 131.444H159.127V169.262C159.127 170.159 158.773 171.02 158.143 171.654C157.512 172.289 156.657 172.645 155.766 172.645H155.278C152.694 172.645 150.217 171.612 148.39 169.773C146.563 167.934 145.536 165.44 145.536 162.839V131.51L145.487 131.444Z" fill="#FFC89E"/>
<path d="M155.782 174.28H155.295C152.287 174.258 149.408 173.046 147.281 170.905C145.154 168.765 143.95 165.867 143.929 162.84V131.51C143.929 131.076 144.1 130.661 144.404 130.354C144.709 130.048 145.122 129.875 145.552 129.875H159.208C159.638 129.875 160.052 130.048 160.356 130.354C160.661 130.661 160.831 131.076 160.831 131.51V169.328C160.81 170.657 160.267 171.924 159.321 172.852C158.375 173.78 157.103 174.293 155.782 174.28ZM147.111 133.078V162.774C147.111 164.941 147.966 167.02 149.489 168.552C151.011 170.085 153.077 170.946 155.23 170.946H155.717C156.177 170.946 156.62 170.762 156.946 170.434C157.271 170.106 157.455 169.661 157.455 169.197V133.013L147.111 133.078Z" fill="#FF7E64"/>
<path d="M132.189 131.444H145.828V169.262C145.828 170.159 145.474 171.02 144.844 171.654C144.213 172.289 143.359 172.645 142.467 172.645H141.98C139.396 172.645 136.918 171.612 135.091 169.773C133.264 167.934 132.237 165.44 132.237 162.839V131.51L132.189 131.444Z" fill="#FFC89E"/>
<path d="M142.467 174.28H141.997C138.989 174.258 136.109 173.046 133.983 170.905C131.856 168.765 130.652 165.867 130.63 162.84V131.51C130.63 131.076 130.801 130.661 131.105 130.354C131.41 130.048 131.823 129.875 132.254 129.875H145.893C146.324 129.875 146.737 130.048 147.041 130.354C147.346 130.661 147.517 131.076 147.517 131.51V169.328C147.496 170.657 146.953 171.924 146.007 172.852C145.061 173.78 143.788 174.293 142.467 174.28ZM133.813 133.078V162.774C133.813 164.941 134.668 167.02 136.191 168.552C137.713 170.085 139.778 170.946 141.932 170.946H142.403C142.863 170.946 143.305 170.762 143.631 170.434C143.956 170.106 144.14 169.661 144.14 169.197V133.013L133.813 133.078Z" fill="#FF7E64"/>
<path d="M128.649 164.245H129.136C130.027 164.245 130.882 163.889 131.513 163.254C132.143 162.62 132.497 161.759 132.497 160.862V131.444H126.002C123.784 131.445 121.599 131.986 119.634 133.022C117.668 134.058 115.981 135.558 114.717 137.393L106.29 149.634L118.809 149.961V154.374C118.8 155.675 119.049 156.965 119.541 158.169C120.033 159.373 120.758 160.466 121.674 161.385C122.589 162.304 123.678 163.03 124.876 163.521C126.073 164.012 127.356 164.258 128.649 164.245Z" fill="#FFC89E"/>
<path d="M129.168 165.879H128.681C125.673 165.858 122.795 164.646 120.668 162.505C118.541 160.364 117.336 157.467 117.315 154.439V151.628L106.371 151.334C106.079 151.324 105.796 151.235 105.55 151.077C105.304 150.919 105.106 150.697 104.975 150.435C104.847 150.178 104.789 149.892 104.806 149.605C104.823 149.318 104.914 149.04 105.072 148.801L113.516 136.56C114.927 134.506 116.812 132.828 119.009 131.669C121.207 130.511 123.652 129.906 126.132 129.908H132.627C133.058 129.908 133.471 130.08 133.775 130.387C134.08 130.693 134.251 131.109 134.251 131.542V160.96C134.221 162.289 133.67 163.553 132.718 164.474C131.765 165.396 130.489 165.901 129.168 165.879ZM109.391 148.082L118.922 148.343C119.353 148.343 119.767 148.515 120.071 148.822C120.376 149.128 120.546 149.544 120.546 149.977V154.39C120.546 156.557 121.402 158.636 122.925 160.168C124.447 161.701 126.511 162.562 128.665 162.562H129.152C129.613 162.562 130.055 162.377 130.38 162.049C130.706 161.722 130.889 161.277 130.889 160.813V133.03H126.018C124.061 133.03 122.134 133.507 120.401 134.421C118.667 135.334 117.18 136.657 116.065 138.276L109.391 148.082Z" fill="#FF7E64"/>
<path d="M211.979 307.966C211.982 306.255 211.481 304.582 210.539 303.159C209.597 301.735 208.257 300.624 206.688 299.967C205.119 299.31 203.391 299.137 201.723 299.468C200.056 299.8 198.524 300.622 197.322 301.831C196.119 303.039 195.299 304.58 194.966 306.257C194.633 307.935 194.802 309.674 195.452 311.254C196.102 312.835 197.203 314.186 198.616 315.137C200.028 316.088 201.69 316.595 203.389 316.595C205.665 316.595 207.847 315.687 209.458 314.069C211.068 312.451 211.975 310.256 211.979 307.966Z" fill="#080717"/>
<path d="M180.3 286.214C180.3 284.504 179.797 282.832 178.853 281.41C177.909 279.989 176.567 278.881 174.998 278.226C173.428 277.572 171.701 277.401 170.035 277.734C168.369 278.068 166.838 278.891 165.637 280.1C164.436 281.309 163.617 282.85 163.286 284.527C162.955 286.204 163.125 287.942 163.775 289.522C164.425 291.102 165.526 292.452 166.939 293.402C168.351 294.352 170.012 294.859 171.711 294.859C173.989 294.859 176.174 293.948 177.785 292.327C179.396 290.706 180.3 288.507 180.3 286.214Z" fill="#080717"/>
<path d="M362.549 246.761C362.336 246.783 362.121 246.762 361.916 246.7C361.71 246.637 361.519 246.535 361.353 246.398C361.188 246.262 361.05 246.094 360.949 245.904C360.848 245.713 360.785 245.505 360.764 245.29C360.742 245.076 360.763 244.859 360.825 244.653C360.886 244.446 360.989 244.254 361.124 244.087C361.26 243.92 361.427 243.782 361.616 243.68C361.805 243.578 362.012 243.514 362.225 243.493L426.411 230.712C426.833 230.631 427.27 230.721 427.626 230.963C427.982 231.205 428.228 231.579 428.311 232.003C428.392 232.428 428.302 232.868 428.062 233.226C427.821 233.585 427.449 233.833 427.028 233.916L362.858 246.696L362.549 246.761Z" fill="white"/>
<path d="M388.561 240.502C388.218 240.502 387.885 240.393 387.608 240.19C387.331 239.988 387.125 239.702 387.019 239.374L376.221 206.051C376.106 205.644 376.151 205.208 376.349 204.835C376.546 204.461 376.879 204.18 377.279 204.048C377.678 203.917 378.112 203.947 378.49 204.131C378.868 204.316 379.161 204.641 379.306 205.037L390.104 238.361C390.237 238.773 390.203 239.221 390.008 239.607C389.813 239.993 389.473 240.286 389.064 240.42C388.903 240.479 388.732 240.507 388.561 240.502Z" fill="white"/>
<path d="M370.197 305.237C369.793 305.239 369.403 305.09 369.103 304.818C368.803 304.546 368.614 304.171 368.573 303.767C368.551 303.552 368.571 303.334 368.633 303.128C368.694 302.921 368.796 302.728 368.932 302.561C369.068 302.394 369.235 302.255 369.425 302.154C369.614 302.052 369.822 301.989 370.035 301.969L409.264 298.112C409.693 298.071 410.12 298.203 410.452 298.479C410.784 298.754 410.994 299.151 411.035 299.583C411.076 300.011 410.946 300.439 410.676 300.772C410.405 301.106 410.015 301.319 409.589 301.364L370.344 305.221L370.197 305.237Z" fill="white"/>
<path d="M274.088 148.295L279.852 183.073L297.129 164.229L315.851 184.527L336.732 128.732L327.363 119.302L297.129 155.534L279.138 138.881L274.088 148.295Z" fill="#69B4E3"/>
<path d="M315.85 186.162C315.628 186.161 315.407 186.114 315.203 186.024C314.999 185.934 314.816 185.803 314.665 185.639L297.128 166.648L281.037 184.184C280.834 184.403 280.575 184.561 280.289 184.642C280.002 184.722 279.7 184.722 279.414 184.642C279.123 184.555 278.863 184.387 278.662 184.159C278.461 183.931 278.328 183.651 278.277 183.35L272.528 148.556C272.469 148.204 272.527 147.842 272.691 147.526L277.725 138.096C277.843 137.877 278.01 137.687 278.213 137.543C278.416 137.398 278.648 137.302 278.893 137.263C279.137 137.222 279.387 137.238 279.623 137.309C279.859 137.379 280.076 137.503 280.258 137.671L297.015 153.181L326.161 118.256C326.306 118.083 326.485 117.943 326.687 117.844C326.889 117.745 327.109 117.689 327.333 117.68C327.557 117.671 327.781 117.708 327.99 117.791C328.199 117.873 328.389 117.998 328.548 118.157L337.901 127.571C338.122 127.793 338.275 128.075 338.341 128.382C338.407 128.689 338.384 129.009 338.274 129.304L317.393 185.099C317.296 185.36 317.135 185.591 316.925 185.771C316.714 185.951 316.462 186.074 316.191 186.129L315.85 186.162ZM297.128 162.595C297.351 162.595 297.571 162.642 297.775 162.732C297.979 162.822 298.163 162.953 298.314 163.118L315.249 181.487L334.832 129.189L327.476 121.769L298.378 156.646C298.237 156.816 298.062 156.956 297.865 157.057C297.668 157.157 297.453 157.216 297.233 157.229C297.012 157.243 296.792 157.212 296.584 157.137C296.376 157.061 296.186 156.944 296.024 156.793L279.576 141.545L275.776 148.621L280.907 179.559L295.943 163.216C296.093 163.048 296.275 162.914 296.479 162.821C296.683 162.729 296.904 162.679 297.128 162.676V162.595Z" fill="white"/>
<path d="M271.214 311.53H151.707C151.276 311.53 150.862 311.358 150.558 311.051C150.253 310.745 150.083 310.329 150.083 309.895C150.083 309.462 150.253 309.046 150.558 308.74C150.862 308.433 151.276 308.261 151.707 308.261H271.214C271.644 308.261 272.058 308.433 272.362 308.74C272.667 309.046 272.837 309.462 272.837 309.895C272.837 310.329 272.667 310.745 272.362 311.051C272.058 311.358 271.644 311.53 271.214 311.53Z" fill="#080717"/>
<path d="M271.214 288.338H151.707C151.276 288.338 150.862 288.166 150.558 287.86C150.253 287.553 150.083 287.138 150.083 286.704C150.083 286.271 150.253 285.855 150.558 285.549C150.862 285.242 151.276 285.07 151.707 285.07H271.214C271.644 285.07 272.058 285.242 272.362 285.549C272.667 285.855 272.837 286.271 272.837 286.704C272.837 287.138 272.667 287.553 272.362 287.86C272.058 288.166 271.644 288.338 271.214 288.338Z" fill="#080717"/>
<path d="M362.549 245.127C358.038 245.382 353.565 246.104 349.202 247.284C343.405 249.033 273.438 261.536 253.011 269.152C236.238 274.202 226.561 284.269 219.708 289.254C212.337 294.614 200.045 295.431 197.593 300.383C196.473 302.622 198.226 304.535 200.986 305.94C197.934 304.731 203.227 307.068 202.091 306.463C205.215 307.771 208.549 308.502 211.931 308.62C217.078 308.62 233.721 305.156 237.375 304.192C237.375 304.192 237.488 304.192 237.553 304.192C241.872 303.489 249.471 300.923 247.295 310.892C245.12 320.862 228.542 326.026 228.542 326.026C228.542 326.026 205.809 315.991 202.302 314.929C194.183 312.461 193.144 322.561 193.144 322.561L209.576 335.211C204.705 334.851 192.965 334.639 192.283 340.653C191.829 344.837 230.782 355.738 230.782 355.738C230.782 355.738 232.861 355.46 235.768 354.953C233.981 360.379 230.457 371.297 229.938 373.83C229.24 377.278 235.637 378.341 235.637 378.341L266.78 339.493C269.102 336.518 273.584 331.321 277.059 327.415C282.302 323.201 286.766 318.089 290.244 312.314L370.165 303.587L362.549 245.127Z" fill="#FFC89E"/>
<path d="M235.67 379.991H235.394C234.923 379.909 230.718 379.141 229.013 376.722C228.701 376.267 228.483 375.753 228.375 375.211C228.266 374.668 228.267 374.11 228.379 373.568C228.834 371.296 231.448 363.108 233.429 357.061L231.026 357.421C230.812 357.469 230.59 357.469 230.376 357.421C190.091 346.144 190.563 341.96 190.709 340.588C191.326 335.047 198.34 333.658 204.624 333.544L192.186 323.983C191.961 323.812 191.785 323.584 191.674 323.324C191.563 323.063 191.522 322.777 191.553 322.496C191.553 322.267 192.219 316.694 195.969 314.193C196.976 313.556 198.114 313.159 199.296 313.035C200.479 312.91 201.674 313.06 202.789 313.474C206.037 314.471 225.018 322.79 228.655 324.391C231.464 323.411 244.016 318.59 245.737 310.663C246.257 308.228 246.176 306.479 245.478 305.76C244.422 304.665 241.451 305.237 239.291 305.646L237.797 305.924H237.44C233.494 306.92 217.192 310.336 211.866 310.336C208.398 310.219 204.976 309.5 201.75 308.212C201.035 307.988 200.34 307.703 199.672 307.362C199.248 307.184 198.873 306.903 198.583 306.545C194.654 303.832 195.466 300.939 196.067 299.73C197.691 296.461 202.221 294.827 207.433 293.078C211.41 291.938 215.204 290.232 218.702 288.011C220.082 286.998 221.625 285.74 223.265 284.416C229.76 279.072 238.853 271.766 252.492 267.681C267.008 262.255 306.644 254.344 330.334 249.621C339.687 247.758 347.075 246.353 348.682 245.797C353.172 244.578 357.776 243.833 362.42 243.574C362.633 243.563 362.846 243.595 363.047 243.667C363.248 243.739 363.433 243.85 363.591 243.995C363.75 244.139 363.879 244.313 363.97 244.507C364.062 244.702 364.114 244.912 364.124 245.127C364.135 245.342 364.104 245.556 364.032 245.759C363.961 245.961 363.85 246.148 363.706 246.307C363.563 246.466 363.391 246.596 363.197 246.688C363.004 246.78 362.795 246.833 362.581 246.843C358.192 247.093 353.839 247.793 349.591 248.935C347.838 249.458 341.116 250.798 330.935 252.825C307.358 257.531 267.869 265.409 253.499 270.802C240.395 274.741 231.676 281.834 225.294 286.998C223.671 288.355 222.047 289.629 220.601 290.692C216.844 293.101 212.765 294.96 208.488 296.216C204.137 297.703 200.029 299.125 198.974 301.233C198.324 302.54 200.077 303.783 201.653 304.6C201.795 304.673 201.927 304.766 202.043 304.878L202.237 304.959C202.382 304.98 202.524 305.019 202.659 305.074C205.583 306.297 208.701 306.984 211.866 307.1C216.737 307.1 232.974 303.832 236.904 302.72C237.087 302.689 237.273 302.689 237.456 302.72L238.609 302.508C241.678 301.919 245.461 301.2 247.734 303.537C249.277 305.172 249.65 307.721 248.839 311.431C246.517 322.185 229.711 327.546 228.996 327.774C228.63 327.912 228.226 327.912 227.86 327.774C220.017 324.31 204.494 317.56 201.798 316.726C201.137 316.463 200.424 316.355 199.715 316.412C199.006 316.469 198.319 316.688 197.707 317.053C196.194 318.344 195.187 320.134 194.865 322.103L210.535 334.148C210.819 334.36 211.026 334.659 211.126 335.001C211.226 335.342 211.212 335.706 211.087 336.039C210.962 336.372 210.733 336.655 210.434 336.844C210.135 337.034 209.782 337.12 209.43 337.09C202.351 336.567 194.703 337.286 193.924 340.8C196.035 343.35 214.448 349.707 230.864 354.316C231.546 354.218 233.266 353.973 235.459 353.58C235.737 353.533 236.022 353.56 236.287 353.657C236.552 353.754 236.787 353.919 236.969 354.136C237.161 354.356 237.291 354.623 237.346 354.911C237.4 355.198 237.376 355.495 237.277 355.77C234.03 365.707 231.854 372.702 231.497 374.467C231.47 374.576 231.467 374.69 231.49 374.801C231.512 374.911 231.559 375.015 231.627 375.104C232.549 375.991 233.704 376.592 234.956 376.837L265.482 338.773C267.853 335.75 272.399 330.602 275.809 326.647C275.86 326.579 275.92 326.518 275.988 326.467C281.076 322.356 285.406 317.377 288.783 311.758C288.909 311.528 289.088 311.332 289.306 311.187C289.524 311.042 289.773 310.952 290.033 310.925L369.97 302.197C370.183 302.175 370.399 302.195 370.604 302.256C370.81 302.317 371.001 302.419 371.168 302.555C371.335 302.691 371.473 302.858 371.575 303.048C371.678 303.237 371.742 303.445 371.764 303.66C371.787 303.875 371.766 304.092 371.705 304.299C371.645 304.505 371.544 304.698 371.409 304.866C371.274 305.034 371.107 305.173 370.919 305.276C370.731 305.379 370.524 305.444 370.311 305.466L291.202 314.111C287.686 319.686 283.299 324.652 278.212 328.82C274.834 332.661 270.385 337.793 268.063 340.735L236.904 379.599C236.736 379.746 236.54 379.856 236.328 379.924C236.115 379.991 235.892 380.014 235.67 379.991Z" fill="#FF7E64"/>
<path d="M229.581 349.74C226.642 349.74 219.514 345.376 208.342 336.666C208.149 336.545 207.984 336.386 207.856 336.197C207.728 336.009 207.64 335.795 207.599 335.571C207.559 335.346 207.565 335.116 207.618 334.894C207.671 334.672 207.769 334.463 207.907 334.282C208.045 334.101 208.219 333.951 208.418 333.841C208.618 333.732 208.837 333.666 209.063 333.647C209.289 333.628 209.517 333.657 209.731 333.732C209.946 333.808 210.142 333.927 210.307 334.083C217.874 339.918 227.178 346.259 229.273 346.471C232.52 345.229 253.174 338.692 254.067 338.414C254.478 338.284 254.923 338.324 255.306 338.525C255.688 338.725 255.976 339.071 256.105 339.485C256.234 339.899 256.194 340.347 255.995 340.732C255.795 341.117 255.452 341.406 255.041 341.536C247.377 343.955 232.309 348.76 230.295 349.577C230.07 349.678 229.828 349.733 229.581 349.74Z" fill="#FF7E64"/>
<path d="M235.524 356.948C235.093 356.987 234.665 356.852 234.333 356.573C234.001 356.294 233.793 355.894 233.754 355.46C233.715 355.027 233.85 354.596 234.127 354.262C234.404 353.928 234.801 353.718 235.232 353.679C235.346 353.679 247.767 351.309 255.756 347.011C256.137 346.807 256.583 346.764 256.996 346.891C257.2 346.954 257.39 347.057 257.554 347.194C257.719 347.331 257.855 347.499 257.956 347.689C258.056 347.879 258.118 348.087 258.139 348.301C258.159 348.515 258.137 348.731 258.075 348.937C258.012 349.143 257.91 349.334 257.774 349.5C257.638 349.666 257.471 349.803 257.283 349.904C248.855 354.431 236.336 356.801 235.816 356.899L235.524 356.948Z" fill="#FF7E64"/>
</svg>
