<svg width="580" height="585" viewBox="0 0 580 585" fill="none" xmlns="http://www.w3.org/2000/svg">
<ellipse cx="289.5" cy="532.5" rx="289.5" ry="52.5" fill="#A8D8EA" fill-opacity="0.8"/>
<ellipse cx="375.211" cy="288.989" rx="195" ry="115" transform="rotate(-60 375.211 288.989)" stroke="#FCBAD3" stroke-width="5"/>
<path d="M478.321 438.507C478.321 438.507 521.703 439.175 535.31 421.18C548.917 403.186 529.658 381.726 530.628 369.904C531.597 358.082 545.424 344.329 543.814 335.882C542.205 327.435 524.665 319.458 524.574 306.372C524.482 293.287 531.249 271.466 519.983 254.392C508.717 237.318 492.769 223.818 475.687 221.454C458.605 219.089 423.471 215.497 412.406 238.708C379.193 308.394 357.923 278.794 350.68 297.457C331.184 347.578 379.833 427.389 478.321 438.507Z" fill="black"/>
<path d="M491.122 448.831H491.031C406.426 444.59 349.052 369.688 349.034 345.755C349.034 339.564 353.058 338.68 354.795 338.536C368.475 337.832 385.612 302.167 398.122 276.123C403.133 265.727 407.45 256.739 411.09 250.711C421.203 233.925 443.278 226.309 474.863 228.71C491.323 229.955 508.643 241.199 522.415 259.573C531.998 272.207 531.322 288.162 530.774 300.904C530.534 304.636 530.491 308.377 530.645 312.112C531.139 318.935 537.138 324.187 542.442 328.825C546.648 332.435 550.635 336.045 551.678 340.052C552.94 344.979 549.849 351.242 546.685 357.866C543.795 363.786 540.814 369.94 540.723 375.301C540.723 378.911 543.009 383.964 545.478 389.271C550.654 400.262 557.073 413.961 548.349 427.173C535.547 446.521 492.951 448.705 491.14 448.831H491.122ZM463.982 231.958C445.089 231.958 424.148 236.182 414.235 252.606C410.687 258.49 406.407 267.406 401.432 277.73C387.807 306.084 370.835 341.369 354.978 342.2C354.247 342.2 352.674 342.326 352.692 345.809C352.692 356.187 367.012 380.391 390.112 401.399C410.705 420.134 444.979 442.911 491.122 445.276C493.262 445.167 533.846 442.713 545.35 425.278C552.976 413.762 547.179 401.616 542.241 390.985C539.461 385.047 537.047 379.921 537.138 375.445C537.248 369.273 540.412 362.811 543.466 356.494C546.521 350.177 549.136 344.798 548.203 341.135C547.453 338.175 543.868 335.034 540.083 331.731C534.267 326.642 527.665 320.902 527.079 312.564C526.9 308.696 526.936 304.822 527.189 300.958C527.719 288.775 528.378 273.614 519.544 261.919C506.339 244.394 489.952 233.673 474.589 232.518C471.169 232.121 467.602 231.958 463.963 231.958H463.982Z" fill="#080717"/>
<path d="M347.443 321.985C347.082 321.983 346.73 321.876 346.43 321.677C346.131 321.478 345.898 321.196 345.76 320.866C340.53 308.232 339.945 298.54 343.932 291.826C347.589 285.906 354.722 282.368 365.294 281.339C377.697 279.966 389.126 274.047 397.318 264.753C397.624 264.407 398.053 264.19 398.516 264.145C398.979 264.101 399.443 264.232 399.812 264.513C400.18 264.794 400.426 265.203 400.499 265.656C400.573 266.11 400.469 266.574 400.207 266.955C391.479 277.14 379.102 283.606 365.659 285.003C356.295 285.924 350.041 288.866 347.078 293.757C343.621 299.442 344.297 308.196 349.071 319.566C349.185 319.841 349.229 320.14 349.199 320.435C349.168 320.731 349.064 321.015 348.896 321.261C348.728 321.507 348.5 321.709 348.234 321.848C347.968 321.987 347.671 322.059 347.37 322.057L347.443 321.985Z" fill="#080717"/>
<path d="M539.241 526.386H251.535L340.091 389.216C354.539 366.818 377.31 353.624 401.488 353.624H438.066C486.423 353.624 531.029 381.058 554.842 425.44L574.686 462.458C589.994 490.975 570.406 526.386 539.241 526.386Z" fill="#FF6700"/>
<path d="M276.572 280.563L267.628 295.634C260.474 307.667 257.827 321.796 260.148 335.558L262.453 349.13L185.876 478.178H282.626L334.238 354.942L333.159 269.102C333.159 267.188 332.388 265.351 331.016 263.997C329.644 262.643 327.783 261.883 325.843 261.883C324.219 261.88 322.64 262.411 321.355 263.391C320.071 264.371 319.153 265.746 318.747 267.298L313.059 289.714L259.454 239.918C258.24 238.74 256.612 238.071 254.91 238.052C253.208 238.034 251.564 238.666 250.324 239.817C249.085 240.968 248.345 242.548 248.261 244.226C248.176 245.904 248.752 247.549 249.87 248.816L276.572 280.563Z" fill="white"/>
<path d="M282.626 478.178L334.238 354.942L333.159 269.102C333.159 267.188 332.388 265.351 331.016 263.997C329.644 262.643 327.783 261.883 325.843 261.883C324.219 261.88 322.64 262.411 321.356 263.391C320.071 264.371 319.153 265.746 318.747 267.298L313.059 289.714L259.454 239.918C258.24 238.74 256.612 238.071 254.91 238.052C253.208 238.034 251.564 238.666 250.324 239.817C249.085 240.968 248.345 242.548 248.261 244.226C248.176 245.904 248.752 247.549 249.87 248.816L276.554 280.419L267.611 295.49C260.456 307.522 257.809 321.652 260.131 335.413L262.435 348.986L185.858 478.034L282.626 478.178Z" fill="white"/>
<path d="M282.626 479.983C282.327 479.982 282.032 479.908 281.768 479.768C281.504 479.628 281.28 479.426 281.113 479.18C280.947 478.934 280.845 478.651 280.815 478.357C280.785 478.063 280.83 477.766 280.944 477.493L332.41 354.599L331.33 269.139C331.33 267.702 330.752 266.325 329.723 265.31C328.694 264.295 327.298 263.724 325.843 263.724C324.618 263.725 323.429 264.131 322.464 264.876C321.499 265.622 320.816 266.665 320.522 267.839L314.833 290.238C314.756 290.544 314.6 290.826 314.379 291.054C314.157 291.282 313.878 291.448 313.571 291.537C313.257 291.637 312.921 291.652 312.599 291.579C312.277 291.506 311.981 291.348 311.742 291.122L258.137 241.326C257.27 240.432 256.081 239.912 254.828 239.879C253.575 239.846 252.359 240.302 251.445 241.149C250.532 241.996 249.994 243.165 249.95 244.401C249.905 245.638 250.355 246.841 251.205 247.751L277.89 279.354C278.131 279.641 278.276 279.995 278.306 280.366C278.335 280.738 278.247 281.109 278.054 281.43L269.11 296.5C262.163 308.165 259.574 321.863 261.795 335.215L264.081 348.787C264.153 349.203 264.076 349.631 263.862 349.997L187.523 479.081C187.27 479.474 186.873 479.755 186.414 479.866C185.956 479.976 185.472 479.908 185.064 479.675C184.656 479.442 184.354 479.063 184.223 478.616C184.091 478.168 184.14 477.689 184.359 477.276L260.588 348.805L258.411 335.883C256.011 321.707 258.73 307.15 266.093 294.75L274.396 280.762L248.554 250.079C247.149 248.458 246.43 246.365 246.546 244.235C246.663 242.105 247.606 240.101 249.18 238.639C250.753 237.177 252.837 236.368 254.999 236.381C257.16 236.394 259.234 237.227 260.789 238.708L312.126 286.393L317.046 266.973C317.571 264.83 318.873 262.95 320.706 261.69C322.538 260.429 324.775 259.874 326.994 260.129C329.213 260.385 331.261 261.433 332.751 263.076C334.24 264.719 335.069 266.844 335.08 269.048L336.159 354.888C336.171 355.129 336.128 355.37 336.031 355.592L284.455 478.864C284.309 479.218 284.054 479.516 283.725 479.717C283.397 479.918 283.012 480.012 282.626 479.983Z" fill="#080717"/>
<path d="M301.318 307.257C300.869 307.26 300.434 307.1 300.096 306.807C299.759 306.514 299.543 306.109 299.489 305.669C299.432 305.195 299.567 304.718 299.865 304.343C300.163 303.968 300.6 303.724 301.079 303.665C305.085 303.16 306.274 298.918 306.566 296.807L275.713 282.187C275.277 281.981 274.942 281.612 274.781 281.162C274.62 280.712 274.646 280.218 274.853 279.787C274.957 279.572 275.103 279.379 275.283 279.22C275.462 279.06 275.672 278.938 275.9 278.859C276.128 278.78 276.369 278.746 276.61 278.76C276.851 278.774 277.086 278.834 277.304 278.939L309.328 294.118C309.648 294.272 309.914 294.514 310.096 294.815C310.278 295.117 310.367 295.464 310.353 295.814C310.188 299.424 308.103 306.427 301.482 307.239L301.318 307.257Z" fill="#080717"/>
<path d="M300.586 320.902C300.029 320.895 299.473 320.853 298.922 320.776C298.437 320.706 298 320.449 297.707 320.062C297.413 319.674 297.288 319.188 297.358 318.709C297.429 318.23 297.688 317.799 298.081 317.509C298.473 317.22 298.967 317.097 299.452 317.166C300.198 317.313 300.967 317.306 301.71 317.144C302.453 316.983 303.154 316.671 303.768 316.227C305.402 314.771 306.517 312.835 306.95 310.704L268.891 293.558C268.673 293.46 268.475 293.32 268.312 293.147C268.148 292.973 268.021 292.77 267.937 292.548C267.853 292.326 267.813 292.089 267.821 291.852C267.83 291.615 267.886 291.383 267.986 291.167C268.085 290.951 268.227 290.757 268.403 290.595C268.579 290.434 268.785 290.308 269.01 290.225C269.235 290.142 269.474 290.103 269.714 290.112C269.954 290.12 270.19 290.175 270.409 290.273L309.786 308.015C310.13 308.171 310.417 308.428 310.607 308.751C310.797 309.074 310.881 309.448 310.846 309.82C310.846 310.073 310.059 315.993 305.999 319.025C304.463 320.239 302.554 320.901 300.586 320.902Z" fill="#080717"/>
<path d="M279.937 335.124H279.517C279.281 335.071 279.057 334.972 278.86 334.834C278.663 334.695 278.496 334.519 278.368 334.315C278.241 334.112 278.156 333.886 278.117 333.65C278.079 333.414 278.088 333.173 278.145 332.941C278.568 331.301 278.5 329.575 277.948 327.973C277.396 326.371 276.385 324.962 275.036 323.916C274.614 323.677 274.306 323.282 274.179 322.818C274.052 322.354 274.117 321.86 274.359 321.444C274.602 321.027 275.002 320.723 275.472 320.598C275.942 320.472 276.443 320.536 276.865 320.776C282.242 323.104 291.058 325.811 293.783 324.602C294.664 324.164 295.399 323.486 295.902 322.648C296.404 321.809 296.653 320.847 296.617 319.873L266.477 308.069C266.026 307.892 265.664 307.546 265.472 307.106C265.28 306.666 265.273 306.168 265.452 305.723C265.632 305.278 265.984 304.921 266.429 304.732C266.875 304.542 267.379 304.535 267.831 304.712L299.069 316.95C299.366 317.066 299.627 317.257 299.826 317.504C300.025 317.751 300.154 318.045 300.202 318.357C300.52 320.254 300.216 322.201 299.335 323.915C298.453 325.629 297.04 327.021 295.301 327.887C292.027 329.349 285.973 327.887 281.328 326.335C282.256 328.727 282.408 331.344 281.766 333.825C281.652 334.212 281.411 334.55 281.079 334.786C280.748 335.021 280.345 335.14 279.937 335.124Z" fill="#080717"/>
<path d="M134.1 119.406C124.531 128.848 118.463 141.195 116.874 154.456C115.284 167.717 118.266 181.12 125.339 192.503L130.826 201.329C144.304 223.002 151.438 247.933 151.438 273.362V275.437H201.916V273.362C201.916 247.933 209.05 223.002 222.528 201.329L228.015 192.503C235.091 181.12 238.075 167.717 236.485 154.455C234.896 141.193 228.826 128.846 219.254 119.406C213.663 113.888 207.026 109.51 199.72 106.524C192.415 103.537 184.584 102 176.677 102C168.769 102 160.939 103.537 153.634 106.524C146.329 109.51 139.691 113.888 134.1 119.406Z" fill="#FF6700"/>
<path d="M145.787 244.7H206.141V271.773C206.141 274.215 205.654 276.632 204.707 278.887C203.76 281.143 202.373 283.192 200.623 284.918C198.874 286.645 196.798 288.014 194.512 288.948C192.227 289.882 189.777 290.363 187.303 290.363H164.625C159.628 290.363 154.837 288.405 151.304 284.918C147.771 281.432 145.787 276.704 145.787 271.773V244.7Z" fill="#080717"/>
<path d="M185.694 249.375C185.209 249.375 184.744 249.185 184.401 248.846C184.058 248.508 183.865 248.049 183.865 247.57C183.865 247.209 184.523 215.949 184.212 199.669C179.673 200.712 175.029 201.245 170.368 201.257V246.794C170.368 247.272 170.175 247.732 169.832 248.07C169.489 248.409 169.024 248.599 168.539 248.599C168.054 248.599 167.589 248.409 167.246 248.07C166.903 247.732 166.71 247.272 166.71 246.794V201.149C164.336 201.003 161.976 200.683 159.65 200.192C147.122 197.467 140.721 189.886 141.782 184.111C142.404 180.754 145.842 177.559 153.597 178.696C165.905 180.501 170.056 196.167 170.312 196.745C170.33 196.895 170.33 197.046 170.312 197.196V197.593C174.941 197.56 179.551 196.997 184.048 195.915C184.048 194.326 183.92 192.991 183.828 191.998C182.877 181.746 183.499 175.899 189.535 170.34C196.064 164.383 203.233 162.904 208.702 166.405C210.748 167.671 212.309 169.574 213.137 171.813C213.965 174.052 214.013 176.499 213.274 178.768C210.037 188.316 199.703 195.211 187.797 198.622C188.163 214.595 187.505 245.982 187.468 247.552C187.473 248.024 187.29 248.48 186.958 248.821C186.627 249.162 186.173 249.361 185.694 249.375ZM150.56 181.927C147.561 181.927 145.623 182.902 145.293 184.634C144.672 188.027 149.664 194.218 160.345 196.528C162.412 196.971 164.508 197.26 166.618 197.395C166.106 195.59 162.211 183.425 152.993 182.125C152.188 182 151.375 181.934 150.56 181.927ZM202.245 168.102C198.336 168.403 194.68 170.127 191.985 172.939C187.45 177.09 186.499 181.115 187.432 191.601C187.432 192.467 187.578 193.568 187.633 194.85C198.112 191.619 207.055 185.609 209.781 177.577C210.244 176.066 210.193 174.446 209.635 172.966C209.077 171.486 208.042 170.227 206.69 169.383C205.359 168.563 203.814 168.143 202.245 168.174V168.102Z" fill="#080717"/>
<path d="M245.06 511.623H418.569C421.916 511.623 425.126 512.935 427.493 515.27C429.859 517.606 431.189 520.773 431.189 524.076V526.116H245.06V511.677V511.623Z" fill="black"/>
<path d="M317.266 526.116H148.036L110.854 415.188C110.017 412.7 109.791 410.051 110.195 407.459C110.598 404.868 111.619 402.408 113.175 400.282C114.73 398.157 116.776 396.426 119.142 395.233C121.508 394.041 124.127 393.42 126.784 393.422H260.679C264.209 393.422 267.649 394.52 270.509 396.562C273.37 398.604 275.504 401.484 276.609 404.792L317.266 526.116Z" fill="black"/>
<path d="M214.682 462.367C214.682 464.695 213.982 466.97 212.672 468.905C211.362 470.84 209.5 472.349 207.321 473.239C205.142 474.13 202.744 474.363 200.431 473.909C198.118 473.455 195.993 472.334 194.326 470.688C192.658 469.043 191.522 466.946 191.062 464.663C190.602 462.38 190.838 460.014 191.74 457.864C192.643 455.714 194.171 453.876 196.132 452.583C198.093 451.29 200.399 450.6 202.758 450.6C204.324 450.597 205.876 450.9 207.324 451.491C208.771 452.081 210.087 452.948 211.195 454.041C212.303 455.134 213.181 456.432 213.779 457.861C214.378 459.29 214.685 460.821 214.682 462.367Z" fill="white"/>
<path d="M202.758 475.922C200.037 475.922 197.377 475.126 195.115 473.633C192.853 472.141 191.09 470.02 190.05 467.539C189.009 465.058 188.738 462.328 189.27 459.695C189.802 457.062 191.114 454.643 193.039 452.746C194.965 450.848 197.417 449.557 200.086 449.035C202.755 448.514 205.521 448.785 208.034 449.815C210.547 450.845 212.693 452.588 214.202 454.822C215.711 457.056 216.515 459.682 216.512 462.368C216.507 465.964 215.056 469.412 212.477 471.953C209.898 474.495 206.403 475.922 202.758 475.922ZM202.758 452.459C200.762 452.459 198.809 453.043 197.149 454.138C195.489 455.233 194.195 456.789 193.431 458.609C192.666 460.43 192.467 462.433 192.856 464.365C193.246 466.298 194.208 468.073 195.619 469.466C197.031 470.86 198.83 471.809 200.788 472.193C202.747 472.578 204.777 472.38 206.621 471.626C208.466 470.872 210.043 469.595 211.153 467.957C212.262 466.318 212.854 464.392 212.854 462.422C212.861 461.109 212.605 459.807 212.101 458.592C211.597 457.377 210.854 456.273 209.916 455.342C208.978 454.411 207.862 453.672 206.634 453.168C205.406 452.664 204.089 452.405 202.758 452.405V452.459Z" fill="black"/>
<path d="M437.133 390.317L437.92 390.462C444.515 391.69 451.336 390.452 457.057 386.989C462.777 383.526 466.987 378.085 468.865 371.727L486.752 311.174L432.598 301.048L416.137 356.62C415.077 360.198 414.788 363.956 415.29 367.65C415.792 371.345 417.074 374.895 419.052 378.07C421.031 381.246 423.663 383.976 426.777 386.086C429.891 388.195 433.419 389.637 437.133 390.317Z" fill="white"/>
<path d="M475.576 240.459L475.467 240.946C472.877 252.066 472.553 263.582 474.512 274.826C476.471 286.07 480.675 296.818 486.879 306.445L458.202 331.966L424.257 317.383C419.148 315.183 414.651 311.803 411.144 307.528C405.416 300.532 402.716 291.589 403.631 282.641C404.545 273.693 408.999 265.461 416.027 259.735L435.981 243.491C441.452 239.034 448.185 236.353 455.258 235.814C462.332 235.274 469.402 236.903 475.503 240.477L475.576 240.459Z" fill="white"/>
<path d="M501.365 310.398C499.697 312.692 497.376 314.446 494.697 315.437C492.018 316.428 489.102 316.612 486.317 315.966C483.532 315.319 481.004 313.872 479.054 311.806C477.104 309.741 475.819 307.15 475.362 304.363C474.905 301.576 475.297 298.718 476.488 296.151C477.678 293.584 479.614 291.424 482.05 289.944C484.486 288.464 487.313 287.731 490.172 287.838C493.031 287.945 495.793 288.887 498.109 290.544C501.196 292.76 503.27 296.091 503.88 299.809C504.49 303.528 503.586 307.334 501.365 310.398Z" fill="white"/>
<path d="M485.288 302.547C485.014 302.545 484.742 302.483 484.495 302.365C484.248 302.246 484.032 302.074 483.861 301.861C483.56 301.489 483.42 301.015 483.472 300.542C483.523 300.069 483.762 299.635 484.136 299.334C484.465 299.082 491.927 293.27 497.999 296.23C498.435 296.443 498.769 296.818 498.925 297.274C499.081 297.729 499.047 298.227 498.831 298.657C498.615 299.088 498.235 299.417 497.774 299.571C497.312 299.725 496.808 299.692 496.372 299.479C493.08 297.854 488.068 300.85 486.422 302.15C486.101 302.404 485.701 302.544 485.288 302.547Z" fill="#080717"/>
<path d="M438.632 306.319C437.796 306.321 436.964 306.199 436.164 305.958C427.678 303.539 427.842 288.74 427.842 288.108C427.85 287.817 427.928 287.532 428.072 287.277C428.215 287.023 428.419 286.806 428.665 286.646C428.91 286.484 429.191 286.384 429.484 286.352C429.777 286.321 430.073 286.36 430.348 286.466L450.869 294.299C451.119 294.393 451.346 294.54 451.532 294.73C451.719 294.921 451.86 295.149 451.947 295.4C452.034 295.649 452.063 295.914 452.035 296.176C452.007 296.437 451.921 296.69 451.783 296.916C451.509 297.331 445.948 306.319 438.632 306.319ZM431.61 290.815C431.957 295.075 433.311 301.392 437.096 302.493C440.882 303.594 445.271 299.388 447.283 296.826L431.61 290.815Z" fill="#080717"/>
<path d="M433.073 256.884C433.148 256.38 433.022 255.868 432.722 255.454C432.422 255.04 431.971 254.757 431.464 254.664C430.766 254.548 430.05 254.576 429.364 254.746C428.678 254.917 428.036 255.227 427.477 255.657L427.221 255.891C426.829 255.997 426.467 256.189 426.16 256.451C425.699 256.834 425.341 257.324 425.118 257.877C424.82 258.582 424.812 259.373 425.095 260.084C425.379 260.795 425.931 261.369 426.636 261.685C427.2 261.972 427.831 262.109 428.465 262.082C429.069 262.061 429.66 261.912 430.2 261.644C430.74 261.376 431.215 260.996 431.592 260.53C432.399 259.463 432.909 258.206 433.073 256.884Z" fill="black"/>
<path d="M456.904 270.926C456.877 270.629 456.776 270.343 456.61 270.095C456.444 269.846 456.218 269.641 455.953 269.5C455.746 269.344 455.498 269.25 455.239 269.229C454.906 269.174 454.564 269.212 454.251 269.337C453.11 269.652 452.103 270.323 451.38 271.25C451.088 271.623 450.842 272.029 450.649 272.46C450.525 272.663 450.415 272.874 450.319 273.091C449.919 273.949 449.804 274.909 449.99 275.835C450.026 276.166 450.146 276.482 450.338 276.755C450.494 276.963 450.694 277.135 450.923 277.26C451.177 277.41 451.461 277.503 451.755 277.531C452.05 277.559 452.346 277.522 452.624 277.423C453.962 276.955 455.107 276.065 455.88 274.89C456.654 273.716 457.013 272.322 456.904 270.926Z" fill="black"/>
<path d="M431.482 276.142C430.997 276.197 430.51 276.059 430.128 275.76C429.745 275.46 429.498 275.023 429.443 274.544C429.387 274.066 429.527 273.585 429.83 273.207C430.134 272.83 430.577 272.587 431.062 272.532C431.062 272.532 435.999 270.998 439.968 260.06C440.036 259.823 440.154 259.602 440.313 259.411C440.471 259.22 440.668 259.063 440.89 258.95C441.113 258.837 441.356 258.771 441.606 258.754C441.855 258.738 442.106 258.772 442.342 258.855C442.577 258.938 442.793 259.067 442.976 259.236C443.158 259.404 443.304 259.608 443.404 259.834C443.504 260.061 443.556 260.305 443.556 260.552C443.557 260.798 443.506 261.043 443.407 261.269C438.761 274.084 432.598 275.871 431.921 276.033L431.482 276.142Z" fill="#080717"/>
<path d="M422.044 271.07C417.353 271.088 412.835 269.326 409.422 266.149C406.01 262.972 403.965 258.623 403.711 254C403.456 249.377 405.012 244.835 408.055 241.312C411.099 237.789 415.398 235.555 420.064 235.071C424.729 234.588 429.405 235.892 433.123 238.714C436.842 241.537 439.319 245.661 440.043 250.235C440.767 254.809 439.682 259.483 437.013 263.29C434.344 267.097 430.295 269.747 425.702 270.691C424.5 270.947 423.274 271.074 422.044 271.07ZM422.044 238.889C418.565 238.881 415.198 240.11 412.561 242.351C409.924 244.591 408.193 247.693 407.684 251.09C407.174 254.487 407.92 257.952 409.787 260.85C411.653 263.749 414.514 265.887 417.847 266.874C421.18 267.862 424.761 267.632 427.937 266.228C431.112 264.823 433.669 262.338 435.14 259.225C436.61 256.113 436.896 252.583 435.946 249.279C434.996 245.976 432.872 243.12 429.964 241.235C427.626 239.721 424.895 238.907 422.099 238.889H422.044Z" fill="#FF6700"/>
<path d="M460.506 290.869C456.473 290.858 452.561 289.521 449.385 287.069C446.209 284.616 443.953 281.189 442.973 277.329C441.993 273.468 442.347 269.396 443.976 265.756C445.605 262.116 448.417 259.116 451.969 257.231C455.52 255.346 459.607 254.683 463.582 255.348C467.558 256.013 471.196 257.967 473.92 260.901C476.644 263.836 478.298 267.582 478.621 271.549C478.944 275.515 477.918 279.475 475.704 282.801C474.051 285.288 471.796 287.328 469.142 288.737C466.488 290.146 463.519 290.879 460.506 290.869ZM460.506 258.688C457.997 258.684 455.529 259.322 453.346 260.542C451.162 261.761 449.336 263.52 448.048 265.645C446.76 267.77 446.054 270.188 445.998 272.664C445.942 275.14 446.538 277.587 447.728 279.767C448.919 281.946 450.664 283.783 452.79 285.098C454.917 286.412 457.353 287.159 459.86 287.264C462.367 287.37 464.858 286.831 467.091 285.701C469.324 284.571 471.221 282.887 472.596 280.816C473.646 279.243 474.371 277.481 474.73 275.631C475.089 273.781 475.074 271.879 474.687 270.035C474.3 268.19 473.547 266.44 472.472 264.883C471.398 263.326 470.022 261.994 468.425 260.962C466.084 259.465 463.351 258.674 460.561 258.688H460.506Z" fill="#FF6700"/>
<path d="M437.846 323.501C434.357 323.498 430.877 323.153 427.458 322.472C427.217 322.425 426.99 322.331 426.786 322.197C426.582 322.062 426.407 321.89 426.272 321.689C426.136 321.487 426.041 321.262 425.994 321.025C425.946 320.788 425.947 320.544 425.995 320.307C426.043 320.07 426.137 319.844 426.273 319.643C426.41 319.442 426.585 319.27 426.789 319.136C426.992 319.002 427.221 318.909 427.461 318.862C427.701 318.815 427.949 318.815 428.189 318.863C438.221 320.783 448.606 319.689 458.001 315.722C458.437 315.512 458.941 315.481 459.4 315.637C459.86 315.792 460.238 316.122 460.451 316.552C460.665 316.983 460.696 317.48 460.538 317.934C460.38 318.387 460.047 318.76 459.61 318.971C452.756 321.967 445.342 323.51 437.846 323.501Z" fill="#080717"/>
<path d="M426.727 471.175L500.926 456.736L518.703 479.117C523.847 485.602 526.878 493.473 527.398 501.692C527.917 509.912 525.899 518.094 521.611 525.159H440.078C422.886 525.159 400.445 510.955 404.834 494.476L426.727 471.175Z" fill="white"/>
<path d="M521.611 527H440.078C428.025 527 414.217 520.503 407.249 511.569C405.203 509.196 403.757 506.379 403.029 503.348C402.301 500.318 402.312 497.159 403.061 494.134C403.134 493.845 403.278 493.578 403.481 493.358L425.428 469.894C425.686 469.609 426.034 469.418 426.416 469.353L500.615 454.914C500.951 454.841 501.3 454.864 501.624 454.979C501.947 455.094 502.232 455.296 502.444 455.563L520.221 477.944C525.564 484.73 528.71 492.948 529.249 501.525C529.787 510.103 527.692 518.641 523.239 526.026C523.084 526.32 522.851 526.566 522.564 526.738C522.276 526.91 521.947 527.001 521.611 527ZM406.499 495.469C406.013 497.908 406.09 500.423 406.723 502.829C407.356 505.235 408.53 507.469 410.157 509.367C416.393 517.362 429.269 523.39 440.096 523.39H520.569C524.373 516.676 526.09 509.004 525.504 501.333C524.919 493.662 522.057 486.331 517.276 480.254L500.194 458.758L427.678 472.836L406.499 495.469Z" fill="#080717"/>
<path d="M401.908 509.096L408.767 505.342C408.767 505.342 422.959 523.39 441.485 510.756C446.021 507.634 446.259 478.576 437.553 468.649C420.526 449.192 388.868 424.845 370.396 436.974C351.924 449.102 327.435 472.818 327.435 472.818C327.435 472.818 337.603 486.048 347.26 478.702C356.7 471.799 366.816 465.844 377.456 460.924L348.193 501.786C352.059 505.965 356.881 509.17 362.257 511.136C370.304 513.608 381.242 520.918 401.908 509.096Z" fill="white"/>
<path d="M340.548 482.781C332.629 482.781 325.752 475.561 325.386 475.11C325.083 474.778 324.916 474.348 324.916 473.901C324.916 473.454 325.083 473.023 325.386 472.692C326.355 471.627 349.546 446.557 369.5 435.331C379.083 429.916 400.866 426.938 438.907 467.349C439.237 467.701 439.411 468.168 439.392 468.647C439.374 469.126 439.163 469.578 438.807 469.903C438.45 470.229 437.977 470.401 437.492 470.382C437.007 470.364 436.548 470.156 436.219 469.804C423.672 456.466 392.215 426.722 371.311 438.471C354.375 447.983 334.348 468.504 329.246 473.829C331.971 476.265 338.811 481.391 344.773 478.034C348.083 476.229 352.089 473.341 356.387 470.327C364.781 464.407 373.469 458.271 379.138 457.856C379.623 457.82 380.103 457.975 380.472 458.289C380.84 458.602 381.068 459.047 381.105 459.525C381.141 460.004 380.983 460.477 380.665 460.841C380.348 461.205 379.897 461.429 379.412 461.465C374.767 461.808 366.135 467.891 358.508 473.251C354.156 476.319 350.059 479.225 346.584 481.175C344.748 482.218 342.667 482.772 340.548 482.781Z" fill="#080717"/>
<path d="M357.942 510.756C352.071 510.756 347.736 505.341 346.054 501.858C345.923 501.566 345.872 501.246 345.907 500.929C345.943 500.612 346.063 500.31 346.255 500.053L387.917 447.207C388.224 446.861 388.653 446.644 389.116 446.599C389.58 446.555 390.043 446.686 390.411 446.967C390.78 447.248 391.025 447.657 391.099 448.11C391.173 448.564 391.068 449.028 390.807 449.408L349.876 501.334C351.248 503.627 355.18 508.987 360.649 506.641C360.87 506.546 361.107 506.495 361.348 506.491C361.589 506.487 361.828 506.53 362.052 506.617C362.277 506.704 362.481 506.834 362.654 506.999C362.828 507.164 362.966 507.361 363.062 507.579C363.158 507.798 363.21 508.032 363.214 508.27C363.218 508.507 363.175 508.744 363.087 508.965C362.998 509.186 362.867 509.388 362.7 509.559C362.532 509.73 362.332 509.867 362.111 509.962C360.79 510.502 359.372 510.772 357.942 510.756Z" fill="#080717"/>
<path d="M371.566 517.416C365.402 517.416 359.147 513.012 358.763 512.76C358.561 512.613 358.393 512.426 358.267 512.212C358.141 511.998 358.061 511.76 358.032 511.514C358.001 511.266 358.022 511.015 358.094 510.776C358.167 510.537 358.289 510.315 358.453 510.124L403.591 458.271C403.745 458.083 403.937 457.928 404.153 457.815C404.37 457.702 404.607 457.633 404.851 457.613C405.095 457.592 405.34 457.619 405.573 457.694C405.806 457.769 406.021 457.889 406.206 458.047C406.391 458.206 406.542 458.399 406.65 458.616C406.758 458.833 406.82 459.07 406.834 459.311C406.848 459.552 406.812 459.794 406.73 460.021C406.647 460.249 406.518 460.457 406.352 460.635L362.604 510.901C365.969 512.85 371.859 515.25 375.407 512.705C381.515 508.211 416.356 473.161 416.722 472.8C417.069 472.502 417.518 472.344 417.979 472.358C418.439 472.372 418.878 472.558 419.206 472.877C419.534 473.196 419.728 473.625 419.749 474.08C419.77 474.534 419.617 474.979 419.319 475.327C417.893 476.789 383.93 510.937 377.602 515.611C375.841 516.842 373.722 517.475 371.566 517.416Z" fill="#080717"/>
<path d="M384.771 517.633C381.782 517.684 378.841 516.882 376.303 515.323C375.93 515.053 375.674 514.654 375.586 514.206C375.499 513.758 375.588 513.294 375.834 512.907C376.08 512.52 376.464 512.24 376.911 512.122C377.358 512.004 377.833 512.058 378.241 512.273C386.471 517.38 398.836 510.468 407.742 503.699C414.264 498.658 420.334 493.072 425.885 487.004C426.04 486.817 426.231 486.662 426.448 486.549C426.664 486.436 426.901 486.367 427.145 486.346C427.389 486.325 427.635 486.353 427.868 486.428C428.101 486.503 428.317 486.623 428.502 486.781C428.687 486.94 428.837 487.133 428.945 487.35C429.052 487.567 429.115 487.803 429.129 488.045C429.142 488.286 429.107 488.527 429.024 488.755C428.941 488.982 428.812 489.191 428.646 489.369C427.458 490.722 403.335 517.633 384.771 517.633Z" fill="#080717"/>
<path d="M445.143 500.018H444.942C444.463 499.963 444.025 499.724 443.723 499.352C443.422 498.98 443.282 498.506 443.333 498.032C444.705 485.777 442.309 476.284 436.218 469.822C423.672 456.484 392.215 426.74 371.311 438.49C371.102 438.608 370.871 438.685 370.632 438.716C370.393 438.746 370.15 438.73 369.918 438.668C369.685 438.606 369.466 438.499 369.276 438.354C369.085 438.209 368.925 438.028 368.805 437.822C368.685 437.616 368.607 437.388 368.576 437.152C368.545 436.916 368.562 436.677 368.624 436.447C368.687 436.217 368.795 436.003 368.942 435.814C369.09 435.626 369.273 435.468 369.482 435.349C379.065 429.935 400.847 426.957 438.889 467.368C445.729 474.587 448.436 485.091 446.954 498.429C446.901 498.866 446.687 499.269 446.353 499.562C446.02 499.854 445.59 500.016 445.143 500.018Z" fill="#080717"/>
<path d="M500.925 458.578C500.484 458.582 500.056 458.43 499.72 458.148C499.384 457.866 499.162 457.474 499.096 457.043C499.059 456.809 499.07 456.569 499.128 456.339C499.185 456.108 499.289 455.891 499.431 455.7C499.574 455.509 499.754 455.347 499.96 455.225C500.166 455.102 500.395 455.021 500.633 454.986L520.751 451.99C520.988 451.954 521.231 451.965 521.464 452.021C521.698 452.078 521.918 452.18 522.112 452.321C522.305 452.462 522.469 452.639 522.593 452.842C522.717 453.045 522.799 453.271 522.835 453.506C522.871 453.74 522.86 453.98 522.803 454.211C522.745 454.441 522.643 454.658 522.5 454.849C522.357 455.04 522.177 455.202 521.971 455.324C521.765 455.447 521.537 455.528 521.299 455.563L501.181 458.559L500.925 458.578Z" fill="#080717"/>
<path d="M428.939 399.883C454.836 408.565 482.069 397.501 489.768 375.157C490.854 371.995 491.513 368.706 491.726 365.374C474.921 357.597 456.59 353.555 438.029 353.534H401.451C398.938 353.546 396.427 353.702 393.933 354.003C393.037 373.243 406.992 392.519 428.939 399.883Z" fill="white"/>
<circle cx="61.5" cy="337.5" r="7.5" fill="#9E61A8"/>
<circle cx="314" cy="65" r="5" fill="#FF9E9E"/>
<circle cx="130" cy="10" r="10" fill="#94E1F9"/>
</svg>
