<svg width="185" height="60" viewBox="0 0 185 60" fill="none" xmlns="http://www.w3.org/2000/svg">
<g clip-path="url(#clip0_166_793)">
<path d="M21.84 10.82V15.3H12.24V21.26H21.44V25.74H12.24V33.02H21.84V37.5H7.04V10.82H21.84ZM39.0531 22.42V8.34H43.9331V37.5H39.0531V35.26C37.7465 37.1267 35.9731 38.06 33.7331 38.06C31.1198 38.06 28.9865 37.1667 27.3331 35.38C25.7065 33.5933 24.8931 31.4067 24.8931 28.82C24.8931 26.2067 25.6931 24.02 27.2931 22.26C28.8931 20.5 30.9598 19.62 33.4931 19.62C35.9998 19.62 37.8531 20.5533 39.0531 22.42ZM38.1731 25.34C37.2665 24.4067 36.1198 23.94 34.7331 23.94C33.3465 23.94 32.1998 24.4067 31.2931 25.34C30.3865 26.2733 29.9331 27.4333 29.9331 28.82C29.9331 30.2067 30.3865 31.38 31.2931 32.34C32.1998 33.2733 33.3465 33.74 34.7331 33.74C36.1198 33.74 37.2665 33.2733 38.1731 32.34C39.0798 31.38 39.5331 30.2067 39.5331 28.82C39.5331 27.4333 39.0798 26.2733 38.1731 25.34ZM48.5856 20.18H53.4656V29.98C53.4656 31.3667 53.8123 32.38 54.5056 33.02C55.1723 33.6067 55.999 33.9 56.9856 33.9C57.9723 33.9 58.799 33.6067 59.4656 33.02C60.159 32.38 60.5056 31.3667 60.5056 29.98V20.18H65.3856V30.78C65.3856 33.1 64.679 34.8733 63.2656 36.1C61.7723 37.4067 59.679 38.06 56.9856 38.06C54.2923 38.06 52.199 37.4067 50.7056 36.1C49.2923 34.8733 48.5856 33.1 48.5856 30.78V20.18Z" fill="#F18701"/>
</g>
<path d="M67.4 49.46V55.54C65.4267 56.58 63.2267 57.1 60.8 57.1C56.9067 57.1 53.6533 55.86 51.04 53.38C48.1867 50.6333 46.76 47.2333 46.76 43.18C46.76 38.86 48.1867 35.38 51.04 32.74C53.5467 30.3933 56.8133 29.22 60.84 29.22C63.1867 29.22 65.3733 29.7667 67.4 30.86V36.94C65.6667 34.94 63.52 33.94 60.96 33.94C58.3467 33.94 56.2133 34.86 54.56 36.7C52.9333 38.5133 52.12 40.7 52.12 43.26C52.12 46.06 53.0267 48.2867 54.84 49.94C56.6533 51.5667 58.76 52.38 61.16 52.38C63.6667 52.38 65.7467 51.4067 67.4 49.46ZM73.5006 41.06C75.2606 39.4333 77.594 38.62 80.5006 38.62C83.4073 38.62 85.7406 39.4333 87.5006 41.06C89.4473 42.82 90.4206 45.0867 90.4206 47.86C90.4206 50.6067 89.4473 52.86 87.5006 54.62C85.7406 56.2467 83.4073 57.06 80.5006 57.06C77.594 57.06 75.2606 56.2467 73.5006 54.62C71.554 52.86 70.5806 50.6067 70.5806 47.86C70.5806 45.0867 71.554 42.82 73.5006 41.06ZM77.0206 51.3C77.954 52.26 79.114 52.74 80.5006 52.74C81.8873 52.74 83.0473 52.26 83.9806 51.3C84.914 50.34 85.3806 49.1933 85.3806 47.86C85.3806 46.5 84.914 45.34 83.9806 44.38C83.0473 43.42 81.8873 42.94 80.5006 42.94C79.114 42.94 77.954 43.42 77.0206 44.38C76.0873 45.34 75.6206 46.5 75.6206 47.86C75.6206 49.1933 76.0873 50.34 77.0206 51.3ZM94.195 56.5V39.18H99.075V41.42C100.408 39.5533 102.195 38.62 104.435 38.62C106.702 38.62 108.408 39.3267 109.555 40.74C110.462 41.86 110.915 43.4867 110.915 45.62V56.5H106.035V47.06C106.035 45.4333 105.728 44.3 105.115 43.66C104.555 43.0733 103.795 42.78 102.835 42.78C101.502 42.78 100.502 43.2867 99.835 44.3C99.3283 45.1 99.075 46.22 99.075 47.66V56.5H94.195ZM115.562 56.5V39.18H120.442V41.42C121.776 39.5533 123.562 38.62 125.802 38.62C128.069 38.62 129.776 39.3267 130.922 40.74C131.829 41.86 132.282 43.4867 132.282 45.62V56.5H127.402V47.06C127.402 45.4333 127.096 44.3 126.482 43.66C125.922 43.0733 125.162 42.78 124.202 42.78C122.869 42.78 121.869 43.2867 121.202 44.3C120.696 45.1 120.442 46.22 120.442 47.66V56.5H115.562ZM149.449 50.94L153.929 51.66C153.743 52.14 153.489 52.62 153.169 53.1C152.876 53.5533 152.409 54.1267 151.769 54.82C151.129 55.4867 150.263 56.0333 149.169 56.46C148.076 56.86 146.823 57.06 145.409 57.06C142.689 57.06 140.476 56.2467 138.769 54.62C136.956 52.9133 136.049 50.66 136.049 47.86C136.049 45.0867 136.929 42.82 138.689 41.06C140.343 39.4333 142.516 38.62 145.209 38.62C148.143 38.62 150.396 39.5667 151.969 41.46C153.356 43.1133 154.049 45.38 154.049 48.26V48.66H141.089C141.089 49.8333 141.369 50.8067 141.929 51.58C142.729 52.6733 143.889 53.22 145.409 53.22C147.223 53.22 148.569 52.46 149.449 50.94ZM141.249 45.54H149.449C149.263 44.42 148.769 43.5667 147.969 42.98C147.196 42.3667 146.316 42.06 145.329 42.06C144.369 42.06 143.489 42.3667 142.689 42.98C141.916 43.5933 141.436 44.4467 141.249 45.54ZM170.868 39.66V44.46C169.774 43.4467 168.441 42.94 166.868 42.94C165.321 42.94 164.121 43.42 163.268 44.38C162.414 45.3133 161.988 46.46 161.988 47.82C161.988 49.2333 162.454 50.4067 163.388 51.34C164.348 52.2733 165.561 52.74 167.028 52.74C168.468 52.74 169.748 52.2333 170.868 51.22V55.98C169.428 56.7 167.934 57.06 166.388 57.06C163.694 57.06 161.468 56.22 159.708 54.54C157.868 52.8067 156.948 50.5933 156.948 47.9C156.948 44.9667 157.948 42.62 159.948 40.86C161.628 39.3667 163.708 38.62 166.188 38.62C167.868 38.62 169.428 38.9667 170.868 39.66ZM183.177 43.34H179.817V56.5H174.937V43.34H173.017V39.18H174.937V33.26H179.817V39.18H183.177V43.34Z" fill="white"/>
<circle cx="86.0001" cy="5.94734" r="3.44362" fill="#9E61A8" stroke="#303030" stroke-width="1.00744"/>
<circle cx="86.0001" cy="15.4207" r="3.44362" fill="#FF9E9E" stroke="#303030" stroke-width="1.00744"/>
<circle cx="97.0523" cy="16.9998" r="3.44362" fill="#FFDD86" stroke="#303030" stroke-width="1.00744"/>
<circle cx="86.0001" cy="28.0521" r="3.44362" fill="#AACFCF" stroke="#303030" stroke-width="1.00744"/>
<circle cx="74.9473" cy="23.3153" r="3.44362" fill="#FFDD86" stroke="#303030" stroke-width="1.00744"/>
<circle cx="74.9473" cy="9.89485" r="3.44362" fill="#679B9B" stroke="#303030" stroke-width="1.00744"/>
<path d="M89.5526 15.8154L93.4999 16.2102M86 18.9265V24.3223" stroke="#303030" stroke-width="0.929944"/>
<path d="M88.3682 8.71057L94.2892 14.6316M94.6839 19.3684L88.7629 25.6841M82.8419 26.8683L78.1051 24.4999M76.9209 20.1578L84.0261 9.1053M82.4472 7.52637L78.4998 8.71057M78.1051 11.4737L82.4472 13.8421M76.9209 13.0526L84.0261 24.8946" stroke="#303030" stroke-width="0.929944"/>
<defs>
<clipPath id="clip0_166_793">
<rect width="64" height="32" fill="white" transform="translate(0 8)"/>
</clipPath>
</defs>
</svg>
